<svg width="85" height="100" viewBox="0 0 85 100" fill="none" xmlns="http://www.w3.org/2000/svg">
<path d="M41.5001 4C22.6375 4 7.29175 18.4817 7.29175 36.282C7.29175 58.3726 37.9048 90.8033 39.2082 92.1729C40.4325 93.4596 42.5699 93.4575 43.7919 92.1729C45.0953 90.8033 75.7084 58.3726 75.7084 36.282C75.7079 18.4817 60.3626 4 41.5001 4ZM41.5001 52.5239C32.0098 52.5239 24.2892 45.2378 24.2892 36.282C24.2892 27.3261 32.0101 20.0402 41.5001 20.0402C50.9901 20.0402 58.7108 27.3263 58.7108 36.2821C58.7108 45.238 50.9901 52.5239 41.5001 52.5239Z" fill="url(#paint0_linear_169_850)"/>
<path fill-rule="evenodd" clip-rule="evenodd" d="M65.4585 64.1242C59.8347 65.4546 49.1665 67.8337 47.9507 67.5298C46.6997 67.217 40.0013 64.1415 36.8086 62.6428L26.2528 56.1921L15.6971 53.6509L10.7232 51.0295C8.61507 45.9148 7.29175 40.8749 7.29175 36.282C7.29175 18.4817 22.6375 4 41.5001 4C60.3626 4 75.7079 18.4817 75.7084 36.282C75.7084 44.8152 71.1404 54.8914 65.4585 64.1242ZM24.2892 36.282C24.2892 45.2378 32.0098 52.5239 41.5001 52.5239C50.9901 52.5239 58.7108 45.238 58.7108 36.2821C58.7108 27.3263 50.9901 20.0402 41.5001 20.0402C32.0101 20.0402 24.2892 27.3261 24.2892 36.282Z" fill="url(#paint1_linear_169_850)"/>
<path fill-rule="evenodd" clip-rule="evenodd" d="M67.1161 61.3486C48.1586 69.8337 39.5787 62.4179 31.3372 55.2947C25.1494 49.9465 19.1524 44.7632 9.09717 46.5985C10.2232 50.131 11.8116 53.7533 13.677 57.3375C20.8922 56.4585 26.5242 59.8897 32.3032 63.4104C40.7901 68.581 49.5942 73.9447 64.1961 66.1338C65.201 64.5649 66.1802 62.9658 67.1161 61.3486Z" fill="url(#paint2_linear_169_850)"/>
<defs>
<linearGradient id="paint0_linear_169_850" x1="41.5001" y1="4" x2="41.5001" y2="93.1371" gradientUnits="userSpaceOnUse">
<stop stop-color="#028EB1"/>
<stop offset="1" stop-color="#48CFE5"/>
</linearGradient>
<linearGradient id="paint1_linear_169_850" x1="22.5" y1="4" x2="56.5" y2="65.5" gradientUnits="userSpaceOnUse">
<stop stop-color="#F33F5E"/>
<stop offset="1" stop-color="#FA8550"/>
</linearGradient>
<linearGradient id="paint2_linear_169_850" x1="9.24633" y1="51.3052" x2="63.5887" y2="65.7705" gradientUnits="userSpaceOnUse">
<stop stop-color="#55DAF4"/>
<stop offset="1" stop-color="#36BED7"/>
</linearGradient>
</defs>
</svg>
