<svg width="26" height="26" viewBox="0 0 26 26" fill="none" xmlns="http://www.w3.org/2000/svg">
<g clip-path="url(#clip0_581_119)">
<path d="M7.99489 8.72553L3.48877 7.92807L1.09399 21.46L5.60011 22.2575L7.99489 8.72553Z" fill="#3562D7"/>
<path d="M22.5642 12.5787C21.8005 11.3779 20.6401 10.6396 19.0835 10.3642C18.51 10.2627 17.9762 10.241 17.4823 10.2992C16.9886 10.3573 16.5576 10.4852 16.1893 10.6829C15.8211 10.8807 15.5219 11.0718 15.2922 11.2564C15.0739 11.4316 14.8535 11.6418 14.6318 11.8845L14.9723 9.96029L10.4796 9.16521L10.3774 9.82317C10.3093 10.2619 10.0754 11.6099 9.67587 13.8674C9.27632 16.1251 8.74607 19.0684 8.08499 22.6974L12.5775 23.4924L13.9139 15.9411C13.996 15.4769 14.111 15.1171 14.2597 14.8615C14.5333 14.4309 14.8908 14.0931 15.3335 13.8477C15.7762 13.6019 16.284 13.5298 16.8577 13.6313C17.6404 13.7698 18.1684 14.1426 18.4413 14.7495C18.7141 15.3563 18.7659 16.1377 18.5967 17.0936L17.316 24.3306L21.8085 25.1256L23.181 17.3701C23.5335 15.3762 23.3283 13.7792 22.5642 12.5787Z" fill="#3562D7"/>
<path d="M6.92162 1.81814C6.16614 1.68444 5.5149 1.79702 4.96783 2.15543C4.4208 2.51395 4.08785 3.02986 3.96861 3.70366C3.85103 4.36803 3.98029 4.96378 4.35655 5.49027C4.73265 6.01679 5.29407 6.34625 6.04051 6.47835L6.06782 6.48319C6.83259 6.61853 7.48887 6.50476 8.03659 6.14154C8.58427 5.77855 8.91235 5.26394 9.02092 4.59778C9.13106 3.92242 8.99741 3.32388 8.62052 2.80185C8.24368 2.27974 7.67715 1.95185 6.92162 1.81814Z" fill="#3562D7"/>
</g>
<defs>
<clipPath id="clip0_581_119">
<rect width="21.3" height="21.3" fill="white" transform="translate(4.46436 0.904358) rotate(10.0358)"/>
</clipPath>
</defs>
</svg>
