<svg width="50" height="48" viewBox="0 0 50 48" fill="none" xmlns="http://www.w3.org/2000/svg">
<path d="M25.0005 26.25C26.6573 26.25 28.0005 24.9069 28.0005 23.25C28.0005 21.5931 26.6573 20.25 25.0005 20.25C23.3436 20.25 22.0005 21.5931 22.0005 23.25C22.0005 24.9069 23.3436 26.25 25.0005 26.25Z" fill="#F33F5E"/>
<path d="M19.8248 3.07545C18.4248 2.47545 16.9749 2.22545 15.7249 2.75045C11.7249 4.45045 12.2499 13.0755 12.2749 13.5505C12.3249 14.1005 12.3748 14.5505 12.4248 14.8505C12.8248 18.4255 13.7999 23.3755 16.2749 28.6505C18.7749 34.0005 21.8998 37.7255 23.3498 39.4505C23.7748 39.9505 23.9748 40.1755 24.0248 40.2505C25.9498 42.3255 31.0498 46.8005 34.4498 45.2505C38.1998 43.5505 37.7748 35.5755 37.7248 34.7755C37.6998 34.3755 37.6748 33.9755 37.5498 33.2255C37.2998 31.5005 36.9249 28.9005 36.0249 25.7505" stroke="url(#paint0_linear_31_305)" stroke-width="3" stroke-linecap="round" stroke-linejoin="round"/>
<path d="M43.8252 30.8747C46.0002 29.7247 47.9502 28.1497 48.1252 26.1497C48.4752 22.0497 41.3001 18.5247 40.6001 18.1747C40.2501 17.9997 39.8752 17.8497 39.1502 17.5747C36.6752 16.6247 32.3002 14.9247 26.2752 14.2997C20.5752 13.6997 15.7251 14.2997 12.2501 14.9997C11.8501 15.0747 11.2751 15.1747 10.6001 15.3497C9.75013 15.5747 2.32518 17.6747 1.90018 21.7247C1.70018 23.4747 2.87513 25.1497 4.35013 26.5247" stroke="url(#paint1_linear_31_305)" stroke-width="3" stroke-linecap="round" stroke-linejoin="round"/>
<path d="M39.0754 10.2507C39.0004 7.60071 38.4004 4.85071 36.5004 3.80071C32.9254 1.80071 26.7254 6.87571 26.1254 7.37571C25.8254 7.62571 25.5253 7.90071 24.9753 8.45071C23.0753 10.3007 19.7503 13.6007 16.7003 18.8257C13.8003 23.7757 12.3504 28.4507 11.5754 31.9007C11.4754 32.3007 11.3253 32.8757 11.2253 33.5507C11.0753 34.4257 9.95035 42.0257 13.4504 44.1007C14.5504 44.7507 15.9004 44.7257 17.2754 44.3757" stroke="url(#paint2_linear_31_305)" stroke-width="3" stroke-linecap="round" stroke-linejoin="round"/>
<defs>
<linearGradient id="paint0_linear_31_305" x1="12.2393" y1="2.46436" x2="43.3928" y2="7.0123" gradientUnits="userSpaceOnUse">
<stop stop-color="#F33F5E"/>
<stop offset="1" stop-color="#FA8550"/>
</linearGradient>
<linearGradient id="paint1_linear_31_305" x1="1.87793" y1="14.0536" x2="41.3824" y2="40.8379" gradientUnits="userSpaceOnUse">
<stop stop-color="#F33F5E"/>
<stop offset="1" stop-color="#FA8550"/>
</linearGradient>
<linearGradient id="paint2_linear_31_305" x1="10.9351" y1="3.33618" x2="45.0496" y2="9.06921" gradientUnits="userSpaceOnUse">
<stop stop-color="#F33F5E"/>
<stop offset="1" stop-color="#FA8550"/>
</linearGradient>
</defs>
</svg>
