<svg width="2782" height="589" viewBox="0 0 2782 589" fill="none" xmlns="http://www.w3.org/2000/svg">
<path d="M532.793 461.75L601.325 93.1055H653.278L751.104 327.446L853.352 93.1055H905.305L967.206 461.75H894.251L861.09 234.594L762.158 461.75H737.84L643.33 234.594L605.747 461.75H532.793ZM1206.04 253.386V222.435H1273.46V461.75H1206.04V430.799C1187.98 456.591 1163.48 469.487 1132.53 469.487C1096.42 469.487 1066.94 457.144 1044.1 432.457C1021.62 407.77 1010.38 377.556 1010.38 341.816C1010.38 305.707 1021.44 275.493 1043.55 251.175C1065.65 226.856 1094.21 214.697 1129.21 214.697C1163.85 214.697 1189.46 227.594 1206.04 253.386ZM1193.88 293.732C1181.35 280.836 1165.5 274.388 1146.35 274.388C1127.18 274.388 1111.34 280.836 1098.81 293.732C1086.28 306.628 1080.02 322.656 1080.02 341.816C1080.02 360.976 1086.28 377.188 1098.81 390.453C1111.34 403.349 1127.18 409.797 1146.35 409.797C1165.5 409.797 1181.35 403.349 1193.88 390.453C1206.4 377.188 1212.67 360.976 1212.67 341.816C1212.67 322.656 1206.4 306.628 1193.88 293.732ZM1405.17 430.799V588.316H1337.74V222.435H1405.17V253.386C1423.23 227.594 1449.21 214.697 1483.1 214.697C1516.26 214.697 1543.53 225.383 1564.9 246.753C1588.85 270.703 1600.82 302.391 1600.82 341.816C1600.82 382.347 1588.3 414.587 1563.24 438.537C1541.13 459.171 1514.05 469.487 1482 469.487C1449.94 469.487 1424.34 456.591 1405.17 430.799ZM1464.86 274.388C1447.55 274.388 1432.99 279.73 1421.2 290.416C1406.1 303.312 1398.54 320.445 1398.54 341.816C1398.54 363.555 1405.91 380.872 1420.65 393.769C1432.81 404.454 1447.55 409.797 1464.86 409.797C1482.92 409.797 1498.02 404.085 1510.18 392.663C1524.19 379.767 1531.19 362.818 1531.19 341.816C1531.19 321.182 1524.37 304.417 1510.74 291.521C1498.21 280.099 1482.92 274.388 1464.86 274.388Z" fill="url(#paint0_linear_189_642)"/>
<path d="M1881.76 127.926L1844.18 177.116C1828.34 156.113 1808.26 145.612 1783.94 145.612C1766.25 145.612 1753.36 150.034 1745.25 158.877C1737.15 167.352 1733.09 177.3 1733.09 188.722C1733.09 198.671 1736.96 206.961 1744.7 213.593C1750.6 219.12 1765.33 226.121 1788.91 234.595C1825.39 247.123 1850.26 259.466 1863.53 271.626C1884.53 290.417 1895.03 316.209 1895.03 349.002C1895.03 385.112 1883.06 414.404 1859.1 436.88C1835.52 458.988 1804.76 470.041 1766.8 470.041C1713.75 470.041 1671.38 446.828 1639.69 400.402L1686.66 355.635C1694.77 372.215 1706.01 384.559 1720.38 392.665C1734.75 400.771 1749.3 404.824 1764.04 404.824C1780.62 404.824 1794.26 400.218 1804.94 391.007C1815.63 381.427 1820.97 369.084 1820.97 353.976C1820.97 341.08 1816.18 330.026 1806.6 320.815C1797.76 312.709 1778.78 303.682 1749.67 293.733C1722.41 284.522 1701.96 273.836 1688.32 261.677C1668.8 244.728 1659.03 221.884 1659.03 193.144C1659.03 163.298 1669.16 137.875 1689.43 116.872C1709.7 95.502 1738.99 84.8164 1777.31 84.8164C1818.94 84.8164 1853.76 99.1863 1881.76 127.926ZM2062.04 279.916H2015.61V461.751H1948.19V279.916H1921.66V222.436H1948.19V140.638H2015.61V222.436H2062.04V279.916ZM2280.64 253.387V222.436H2348.07V461.751H2280.64V430.8C2262.59 456.592 2238.09 469.489 2207.14 469.489C2171.03 469.489 2141.55 457.145 2118.71 432.458C2096.23 407.772 2084.99 377.558 2084.99 341.817C2084.99 305.708 2096.05 275.494 2118.15 251.176C2140.26 226.858 2168.82 214.699 2203.82 214.699C2238.46 214.699 2264.06 227.595 2280.64 253.387ZM2268.49 293.733C2255.96 280.837 2240.12 274.389 2220.95 274.389C2201.8 274.389 2185.95 280.837 2173.42 293.733C2160.9 306.63 2154.63 322.658 2154.63 341.817C2154.63 360.977 2160.9 377.189 2173.42 390.454C2185.95 403.35 2201.8 409.798 2220.95 409.798C2240.12 409.798 2255.96 403.35 2268.49 390.454C2281.02 377.189 2287.28 360.977 2287.28 341.817C2287.28 322.658 2281.02 306.63 2268.49 293.733ZM2412.36 461.751V222.436H2479.79V258.361C2487.9 242.886 2497.85 231.832 2509.63 225.2C2520.69 218.199 2533.95 214.699 2549.43 214.699C2558.27 214.699 2567.85 216.541 2578.17 220.225L2569.32 283.232C2560.85 277.337 2550.35 274.389 2537.82 274.389C2518.29 274.389 2503.37 280.837 2493.05 293.733C2484.21 304.787 2479.79 322.473 2479.79 346.791V461.751H2412.36ZM2769.18 240.122L2736.02 279.363C2724.6 268.678 2711.52 263.335 2696.78 263.335C2688.67 263.335 2682.23 265.178 2677.43 268.862C2673.01 272.178 2670.8 276.784 2670.8 282.679C2670.8 292.26 2677.98 299.445 2692.35 304.234L2708.38 309.209C2739.71 319.157 2759.97 330.579 2769.18 343.475C2777.29 354.529 2781.34 367.794 2781.34 383.269C2781.34 407.587 2772.49 427.852 2754.81 444.065C2736.39 461.014 2712.44 469.489 2682.96 469.489C2645.75 469.489 2614.8 456.224 2590.11 429.695L2625.48 388.796C2641.33 407.219 2659.01 416.43 2678.54 416.43C2688.12 416.43 2696.04 414.22 2702.3 409.798C2708.57 405.008 2711.7 398.56 2711.7 390.454C2711.7 379.4 2704.7 371.294 2690.7 366.136L2675.22 360.609C2651.28 352.134 2634.14 342.554 2623.82 331.869C2611.66 318.973 2605.58 303.682 2605.58 285.996C2605.58 263.888 2613.87 245.834 2630.45 231.832C2644.82 220.41 2665.65 214.699 2692.91 214.699C2721.65 214.699 2747.07 223.173 2769.18 240.122Z" fill="white"/>
<path d="M212.434 0C95.2971 0 0 89.9314 0 200.471C0 337.654 190.107 539.048 198.201 547.554C205.804 555.544 219.077 555.531 226.666 547.554C234.76 539.048 424.867 337.654 424.867 200.471C424.864 89.9314 329.57 0 212.434 0ZM212.434 301.333C153.499 301.333 105.554 256.087 105.554 200.471C105.554 144.855 153.501 99.6096 212.434 99.6096C271.367 99.6096 319.312 144.856 319.312 200.472C319.312 256.088 271.367 301.333 212.434 301.333Z" fill="url(#paint1_linear_189_642)"/>
<path fill-rule="evenodd" clip-rule="evenodd" d="M361.216 373.371C326.292 381.633 260.042 396.407 252.492 394.52C244.723 392.578 203.126 373.479 183.3 364.172L117.748 324.113L52.1972 308.332L21.3093 292.053C8.21782 260.291 0 228.993 0 200.471C0 89.9314 95.2971 0 212.434 0C329.57 0 424.864 89.9314 424.867 200.471C424.867 253.462 396.5 316.036 361.216 373.371ZM105.554 200.471C105.554 256.087 153.499 301.333 212.434 301.333C271.367 301.333 319.312 256.088 319.312 200.472C319.312 144.856 271.367 99.6096 212.434 99.6096C153.501 99.6096 105.554 144.855 105.554 200.471Z" fill="url(#paint2_linear_189_642)"/>
<path fill-rule="evenodd" clip-rule="evenodd" d="M371.51 356.135C253.784 408.828 200.503 362.776 149.323 318.541C110.897 285.328 73.6559 253.14 11.2129 264.537C18.2055 286.474 28.0695 308.968 39.6536 331.226C84.46 325.768 119.435 347.075 155.322 368.939C208.026 401.048 262.699 434.357 353.377 385.851C359.618 376.108 365.698 366.178 371.51 356.135Z" fill="url(#paint3_linear_189_642)"/>
<defs>
<linearGradient id="paint0_linear_189_642" x1="509.58" y1="-4.00033" x2="1906.48" y2="1423.87" gradientUnits="userSpaceOnUse">
<stop stop-color="#F33F5E"/>
<stop offset="1" stop-color="#FA8550"/>
</linearGradient>
<linearGradient id="paint1_linear_189_642" x1="212.434" y1="0" x2="212.434" y2="553.541" gradientUnits="userSpaceOnUse">
<stop stop-color="#028EB1"/>
<stop offset="1" stop-color="#48CFE5"/>
</linearGradient>
<linearGradient id="paint2_linear_189_642" x1="94.4432" y1="2.10972e-06" x2="305.583" y2="381.915" gradientUnits="userSpaceOnUse">
<stop stop-color="#F33F5E"/>
<stop offset="1" stop-color="#FA8550"/>
</linearGradient>
<linearGradient id="paint3_linear_189_642" x1="12.1392" y1="293.766" x2="349.605" y2="383.595" gradientUnits="userSpaceOnUse">
<stop stop-color="#55DAF4"/>
<stop offset="1" stop-color="#36BED7"/>
</linearGradient>
</defs>
</svg>
